# xmcd
# Copyright (C) 1995-1998 Ti Kan
#
# Track frame offsets:
#       150
#       17821
#       34914
#       47897
#       66702
#
# Disc length: 1049 seconds
#
# Revision: 0
# Processed by: cddbd v1.5.2PL0 Copyright (c) Steve Scherf et al.
# Submitted via: CD-Import v1.0
#
DISCID=47041705
DTITLE=Bricks - Turn Up Your Radio
DYEAR=09
DGENRE=
TTITLE0=Turn Up Your Radio
TTITLE1=Sheronda
TTITLE2=Mainstream Pop
TTITLE3=Dead And Gone
TTITLE4=Bottom Of My Heart
EXTD=
EXTT0=
EXTT1=
EXTT2=
EXTT3=
EXTT4=
PLAYORDER=
